HIERARCHY
ROOT Hips
{
  OFFSET 0 89.5177 0.535
  CHANNELS 6 Xposition Yposition Zposition Zrotation Xrotation Yrotation
  JOINT Spine
  {
    OFFSET 12.0259 -0.162855 1.69034e-005
    CHANNELS 3 Zrotation Xrotation Yrotation
    JOINT Spine1
    {
      OFFSET 15.3169 -0.0121922 0
      CHANNELS 3 Zrotation Xrotation Yrotation
      JOINT Spine2
      {
        OFFSET 15.3176 -0.0121908 0
        CHANNELS 3 Zrotation Xrotation Yrotation
        JOINT Neck
        {
          OFFSET 19.9142 1.56338 0
          CHANNELS 3 Zrotation Xrotation Yrotation
          JOINT Head
          {
            OFFSET 6.92651 0 0
            CHANNELS 3 Zrotation Xrotation Yrotation
            End Site
            {
              OFFSET 20.7666 0 0
            }
          }
          JOINT LeftShoulder
          {
            OFFSET -6.20654 0.708824 7.28219
            CHANNELS 3 Zrotation Xrotation Yrotation
            JOINT LeftArm
            {
              OFFSET 14.108 0 -1.52588e-005
              CHANNELS 3 Zrotation Xrotation Yrotation
              JOINT LeftForeArm
              {
                OFFSET 28.5802 0 0
                CHANNELS 3 Zrotation Xrotation Yrotation
                JOINT LeftHand
                {
                  OFFSET 27.092 0 0
                  CHANNELS 3 Zrotation Xrotation Yrotation
                  End Site
                  {
                    OFFSET 9.55928 -0.186424 0.145352
                  }
                }
              }
            }
          }
          JOINT RightShoulder
          {
            OFFSET -6.20654 0.708866 -7.28218
            CHANNELS 3 Zrotation Xrotation Yrotation
            JOINT RightArm
            {
              OFFSET 14.108 0 1.52588e-005
              CHANNELS 3 Zrotation Xrotation Yrotation
              JOINT RightForeArm
              {
                OFFSET 28.5802 0 0
                CHANNELS 3 Zrotation Xrotation Yrotation
                JOINT RightHand
                {
                  OFFSET 27.092 0 0
                  CHANNELS 3 Zrotation Xrotation Yrotation
                  End Site
                  {
                    OFFSET 9.55929 -0.186417 -0.145354
                  }
                }
              }
            }
          }
        }
      }
    }
  }
  JOINT LeftUpLeg
  {
    OFFSET 0.005 -0.535 8.837
    CHANNELS 3 Zrotation Xrotation Yrotation
    JOINT LeftLeg
    {
      OFFSET 39.9035 0 0
      CHANNELS 3 Zrotation Xrotation Yrotation
      JOINT LeftFoot
      {
        OFFSET 39.6689 0 0
        CHANNELS 3 Zrotation Xrotation Yrotation
        JOINT LeftToe
        {
          OFFSET 10.1624 13.6296 0
          CHANNELS 3 Zrotation Xrotation Yrotation
          End Site
          {
            OFFSET 8.38147 0 0
          }
        }
      }
    }
  }
  JOINT RightUpLeg
  {
    OFFSET 0.005 -0.535 -8.837
    CHANNELS 3 Zrotation Xrotation Yrotation
    JOINT RightLeg
    {
      OFFSET 39.9035 0 0
      CHANNELS 3 Zrotation Xrotation Yrotation
      JOINT RightFoot
      {
        OFFSET 39.6689 0 0
        CHANNELS 3 Zrotation Xrotation Yrotation
        JOINT RightToe
        {
          OFFSET 10.1624 13.6296 0
          CHANNELS 3 Zrotation Xrotation Yrotation
          End Site
          {
            OFFSET 8.38147 0 0
          }
        }
      }
    }
  }
}
MOTION
Frames:	12
Frame Time:	0.0333333
350.507 88.7085 -124.654 -100.172 54.1888 -174.978 1.54776 -1.38982 -2.12856 3.04421 -2.83521 -4.22058 3.04421 -2.83521 -4.22058 -8.30907e-012 -9.0191e-006 -5.27751e-005 23.4711 -27.0162 21.4609 9.08592 -26.5636 109.678 57.4673 -14.0134 54.7865 -4.06886e-006 3.18055e-015 -1.59028e-015 82.6845 13.7733 -155.458 5.01999 14.1761 -109.732 -104.539 -46.148 -140.801 -28.1896 3.18055e-015 6.36111e-015 -22.1311 60.2794 22.6265 -16.8272 8.37909 -173.068 -26.6363 3.18055e-015 1.59028e-015 18.2582 8.16015 -10.6798 90 2.38542e-015 6.36111e-015 -19.0355 -12.6908 171.068 -17.2458 3.18056e-015 7.76503e-016 2.90082 -2.86683 4.4666 90 5.96354e-016 6.36111e-015 
350.224 88.4869 -123.477 -100.603 52.0418 -174.636 1.5084 -1.46421 -2.03161 2.96542 -2.98002 -4.02585 2.96542 -2.98002 -4.02585 -8.30748e-012 -9.0191e-006 -5.27751e-005 23.245 -27.5429 21.2536 9.17814 -26.7294 109.76 57.4404 -13.8607 54.2212 -4.06723e-006 -3.18055e-015 7.95139e-015 82.5701 13.6805 -154.91 4.83537 13.7844 -109.547 -104.546 -45.5175 -142.02 -28.0073 -9.54166e-015 -0 -22.123 60.3352 22.6267 -17.4478 6.75162 -172.787 -27.4115 9.54166e-015 -0 18.8183 8.59445 -11.6341 90 -2.38542e-015 -9.54166e-015 -18.5739 -10.3284 170.439 -12.3234 3.18056e-015 -1.19271e-015 0.348251 -4.99765 7.78743 90 0 -2.54444e-014 
349.785 88.2467 -122.277 -100.994 49.9094 -174.246 1.47405 -1.4913 -1.94798 2.89806 -3.03091 -3.85879 2.89805 -3.03091 -3.8588 -8.30708e-012 -9.0191e-006 -5.27751e-005 22.8097 -28.3176 21.092 9.24532 -26.8007 109.85 57.4167 -13.6884 53.7066 -4.06563e-006 3.18055e-015 -3.18055e-015 82.3613 13.4681 -153.811 4.68686 13.4874 -109.367 -104.086 -44.8552 -142.804 -27.5778 9.54166e-015 -3.18055e-015 -22.571 60.2185 23.0578 -18.0941 5.16294 -172.5 -28.0553 -3.18055e-015 -1.59028e-015 19.1748 9.01561 -12.7342 90 -1.59028e-015 -9.54166e-015 -18.3332 -7.36937 169.729 -9.52519 6.36111e-015 3.97569e-015 -1.90138 -7.17921 11.2142 90 -9.93923e-017 1.90833e-014 
349.162 88.0091 -121.015 -101.291 47.8428 -174.002 1.45349 -1.50277 -1.86031 2.85892 -3.051 -3.68367 2.85892 -3.051 -3.68368 -8.30311e-012 -9.0191e-006 -5.27751e-005 22.6813 -28.8942 20.9693 9.1781 -26.7268 109.761 57.4009 -13.2952 53.4339 -4.06407e-006 -9.54166e-015 1.59028e-015 82.4485 12.8417 -152.754 4.58039 13.345 -109.142 -104.165 -44.0418 -143.624 -27.6335 6.36111e-015 -0 -22.7004 60.3287 23.2004 -18.7771 3.70127 -171.978 -28.59 -1.59028e-014 -1.11319e-014 19.2946 9.49485 -14.1608 90 -1.59028e-015 -3.18055e-015 -18.4892 -4.02609 169.274 -10.0942 1.27222e-014 -2.38542e-015 -0.590024 -8.61938 13.5496 90 -1.98785e-016 -0 
348.391 87.745 -119.797 -101.548 45.5154 -173.78 1.44877 -1.54223 -1.78419 2.85039 -3.12788 -3.5306 2.85039 -3.12788 -3.53061 -8.30549e-012 -9.0191e-006 -5.27751e-005 22.6324 -29.1793 20.8558 9.21924 -26.6815 109.873 57.6273 -13.0718 52.9815 -4.06255e-006 3.18055e-015 1.59028e-015 82.3519 12.7311 -152.188 4.47964 13.1628 -108.985 -105.43 -42.9761 -144.814 -28.6156 -9.54166e-015 1.59028e-015 -21.7944 60.9102 22.3675 -19.6321 1.74575 -171.575 -29.1165 1.27222e-014 -0 18.974 9.7472 -15.7347 90 7.95139e-016 -9.54166e-015 -19.5014 -2.73349 168.834 -13.5442 6.36111e-015 3.97569e-015 3.21001 -9.30097 14.7193 90 -5.96354e-016 3.18055e-015 
347.644 87.4369 -118.511 -100.956 42.7407 -174.643 1.57964 -1.63045 -1.57513 3.11578 -3.30263 -3.10646 3.11578 -3.30263 -3.10647 -8.31464e-012 -9.0191e-006 -5.27751e-005 22.6303 -29.3189 20.6086 9.22539 -26.6385 109.913 57.6262 -12.9656 52.3446 -4.06106e-006 6.36111e-015 3.18055e-015 82.3637 12.6757 -152.095 4.43311 13.0507 -108.949 -107.195 -41.5254 -146.007 -30.3217 0 1.59028e-015 -21.0883 62.258 21.8042 -20.2856 -0.203358 -170.878 -30.2602 3.18055e-015 1.59028e-015 19.4877 10.116 -16.3536 90 7.95139e-016 1.27222e-014 -19.7882 -4.33331 168.956 -16.3028 3.18056e-015 -1.19271e-015 6.50746 -9.5075 15.1172 90 -1.98785e-016 -9.54166e-015 
346.798 87.1579 -117.256 -100.694 40.4819 -175.24 1.7351 -1.57395 -1.33482 3.43503 -3.18672 -2.62271 3.43503 -3.18672 -2.62272 -8.30549e-012 -9.0191e-006 -5.27751e-005 22.7792 -29.3309 20.8725 9.40329 -26.5932 110.302 57.7091 -13.1358 50.9061 -4.05961e-006 1.59028e-015 3.18055e-015 82.3402 12.5904 -151.821 4.49333 13.1733 -109.026 -108.187 -39.8626 -146.817 -31.9295 -3.18055e-015 1.59028e-015 -20.2907 63.4661 21.1213 -21.0229 -0.670918 -169.967 -30.8987 3.18055e-015 1.59028e-015 19.6372 10.2264 -16.5296 90 0 -0 -20.3207 -6.40066 169.639 -18.6332 0 2.98177e-015 8.97891 -8.81104 14.0146 90 -1.98785e-016 -3.18055e-015 
345.839 87.1756 -116.13 -101.089 38.7473 -175.112 1.84329 -1.44291 -1.15943 3.65878 -2.92161 -2.27277 3.65878 -2.92161 -2.27278 -8.3051e-012 -9.0191e-006 -5.27751e-005 23.3082 -28.8765 21.5288 9.55783 -26.2532 110.84 57.3368 -12.4027 49.2045 -4.0582e-006 -1.59028e-015 -0 82.5262 12.4322 -152.079 4.60961 13.3674 -109.226 -108.568 -38.5694 -147.116 -33.1799 6.36111e-015 9.54166e-015 -19.669 64.0063 20.5486 -22.3936 0.00835011 -169.255 -31.241 6.36111e-015 -7.95139e-015 18.3345 9.95209 -16.0208 90 1.19271e-015 -3.18055e-015 -21.3049 -7.24192 170.391 -20.5122 -6.36111e-015 -1.59028e-015 9.94649 -7.74261 12.2803 90 -2.98177e-016 -3.18055e-015 
344.94 87.4472 -115.167 -101.126 36.9293 -175.163 2.01184 -1.36458 -0.988317 4.00158 -2.76236 -1.92879 4.00158 -2.76236 -1.9288 -8.31305e-012 -9.0191e-006 -5.27751e-005 23.6963 -28.3081 21.7235 9.58322 -25.9907 111.07 57.1832 -11.1879 47.879 -4.05683e-006 -3.18055e-015 9.54166e-015 82.3379 12.7496 -152.175 4.64692 13.3584 -109.382 -109.328 -37.362 -146.83 -34.6262 1.27222e-014 6.36111e-015 -20.2005 64.4189 21.1149 -23.4963 1.19506 -168.846 -31.0013 3.18055e-015 -1.59028e-015 16.0248 9.39046 -15.0213 90 -2.38542e-015 1.59028e-014 -21.4628 -8.09787 170.869 -21.0655 -3.18056e-015 -1.97542e-015 10.0034 -7.05932 11.1744 90 2.98177e-016 6.36111e-015 
344.141 87.7932 -114.378 -101.058 34.5537 -175.056 2.14629 -1.40443 -0.819813 4.27423 -2.83797 -1.587 4.27423 -2.83797 -1.58701 -8.30828e-012 -9.0191e-006 -5.27751e-005 23.8429 -28.3115 21.7358 9.47308 -25.7975 110.978 56.6175 -10.0404 46.817 -4.0555e-006 0 3.18055e-015 82.5373 12.731 -152.784 4.68682 13.2751 -109.648 -109.931 -36.769 -146.12 -36.3727 1.27222e-014 3.18055e-015 -22.2444 64.9964 23.2134 -24.3034 2.90032 -168.972 -29.7974 0 -3.18055e-015 13.4129 8.76959 -13.9407 90 7.95139e-016 9.54166e-015 -20.9911 -9.80444 170.865 -20.3236 9.54167e-015 -2.98177e-016 9.90214 -6.53531 10.3373 90 4.96962e-016 -0 
343.367 88.079 -113.676 -101.396 31.9382 -174.663 2.15248 -1.43086 -0.644424 4.29077 -2.88436 -1.23506 4.29077 -2.88436 -1.23507 -8.31146e-012 -9.0191e-006 -5.27751e-005 24.0188 -29.0422 21.7887 9.49594 -25.8818 110.966 56.0293 -9.59824 45.7173 -4.0542e-006 0 -6.36111e-015 82.5162 12.6803 -152.602 4.76686 13.2894 -109.939 -109.378 -36.8185 -145.054 -37.7672 3.18055e-015 4.77083e-015 -25.3849 65.7052 26.4469 -25.1682 5.53573 -169.178 -27.7115 6.36111e-015 -0 11.0474 8.4017 -13.2984 90 -7.95139e-016 3.18055e-015 -20.5153 -11.5017 170.892 -18.8167 0 -3.13086e-015 9.69378 -5.69671 9.00659 90 3.47873e-016 9.54166e-015 
342.676 88.34 -113.11 -101.855 29.4063 -174.164 2.13767 -1.42246 -0.505078 4.26472 -2.86224 -0.957014 4.26472 -2.86224 -0.957024 -8.30828e-012 -9.0191e-006 -5.27751e-005 24.3391 -29.6189 22.1162 9.7468 -26.1716 111.279 54.7855 -9.05165 44.3654 -4.05294e-006 0 -6.36111e-015 82.5717 11.9277 -151.028 4.86362 13.4234 -110.13 -108.765 -36.7337 -144.3 -39.0781 3.18055e-015 -0 -28.2312 66.4068 29.4031 -25.8825 9.27548 -169.434 -25.0267 6.36111e-015 1.59028e-015 8.98478 8.34282 -13.1745 90 0 -0 -20.2839 -12.9889 170.77 -17.403 -3.18056e-015 -4.96962e-017 9.35637 -4.94552 7.81973 90 -2.48481e-016 3.18055e-015 
